<svg version="1" xmlns="http://www.w3.org/2000/svg" width="346.667" height="346.667" viewBox="0 0 260.000000 260.000000"><path d="M0 130v130h260V0H0v130zm158-71.1c0 .9-41.9 113.3-42.4 113.9-.2.1-4.1.2-8.7 0l-8.4-.3 21.4-57.3L141.3 58h8.4c4.5 0 8.3.4 8.3.9zM84 81.8v7.8L55.5 103c-16.6 7.8-28 13.7-27.3 14.1.7.3 13.6 5.7 28.6 11.9L84 140.3v15.5l-18.2-8c-10.1-4.5-27.1-12-37.8-16.7l-19.5-8.6-.3-5-.2-5 37.7-19.2C66.5 82.7 83.6 74.1 83.8 74c.1 0 .2 3.5.2 7.8zm163.8 35.7l-.3 5-19.5 8.6c-10.7 4.7-27.7 12.2-37.7 16.7l-18.3 8v-15.5l27.3-11.3c14.9-6.2 27.8-11.6 28.5-11.9.7-.4-10.7-6.3-27.3-14.1L172 89.6V74l38 19.2 38 19.3-.2 5z"/></svg>